<svg xmlns="http://www.w3.org/2000/svg" width="513" height="515" viewBox="0 0 513 515"><defs><style>.cls-1{fill:#fff;}.cls-1,.cls-2,.cls-3{stroke:#000;stroke-miterlimit:10;}.cls-1,.cls-2{stroke-width:10px;}.cls-3{fill:none;stroke-linecap:round;stroke-width:35px;}</style></defs><title>logo</title><g id="Layer_1" data-name="Layer 1"><path class="cls-1" d="M256,506.5c-66.63,0-129.46-26.13-176.92-73.58S5.5,322.63,5.5,256A248.65,248.65,0,0,1,47.33,117.83C94.16,47.49,172.17,5.5,256,5.5c66.63,0,129.46,26.13,176.92,73.58S506.5,189.37,506.5,256s-26.13,129.46-73.58,176.92S322.63,506.5,256,506.5Z"/><path class="cls-2" d="M256,6a246.89,246.89,0,0,1,97.07,19.73,252.44,252.44,0,0,1,133.2,133.2,248.65,248.65,0,0,1,0,194.14,252.44,252.44,0,0,1-133.2,133.2,248.65,248.65,0,0,1-194.14,0,252.44,252.44,0,0,1-133.2-133.2,248.61,248.61,0,0,1,22-235,253.54,253.54,0,0,1,88.48-81.35A249.17,249.17,0,0,1,256,6m0-1h0C169,5,92,49.84,46.92,117.55A249.07,249.07,0,0,0,5,256H5C5,394.05,118,507,256,507h0c138.05,0,251-112.95,251-251h0C507,118,394.05,5,256,5Z"/></g><g id="Layer_2" data-name="Layer 2"><path d="M119.53,166.1H51.67a19.11,19.11,0,0,1-19.17-19h0A19.11,19.11,0,0,1,51.67,128H271.83A19.11,19.11,0,0,1,291,147.05h0a19.11,19.11,0,0,1-19.17,19H203.45a19.12,19.12,0,0,0-19.17,19.05V456A19.11,19.11,0,0,1,165.12,475h-7.26A19.11,19.11,0,0,1,138.7,456V185.15A19.11,19.11,0,0,0,119.53,166.1Z"/></g><g id="Layer_4" data-name="Layer 4"><rect y="390" width="35" height="123" rx="12"/></g><g id="Layer_4_copy" data-name="Layer 4 copy"><rect x="433" y="435" width="35" height="125" rx="12" transform="translate(948 47) rotate(90)"/></g><g id="Layer_7" data-name="Layer 7"><path class="cls-3" d="M234.5,465.5c-12.8-39.77-29.63-111.33-5-174,11.66-29.67,24.22-36,31-38,22.59-6.71,40.19,21.61,39,42-8,137,26.41,162.92,10,162-19-1.06-42.26-163.35,27-225,5.2-4.63,23.63-20.58,49-21,37.07-.62,67.28,32.26,78,54,25.22,51.13,9,127-93,191"/></g></svg>